<?xml version="1.0" encoding="UTF-8" standalone="no"?>
<!-- Created with Inkscape (http://www.inkscape.org/) -->

<svg
   width="820"
   height="745"
   viewBox="0 0 216.95833 197.1147"
   version="1.1"
   id="svg1"
   xml:space="preserve"
   inkscape:version="1.4.2 (ebf0e94, 2025-05-08)"
   sodipodi:docname="dark_icon_adroc.svg"
   inkscape:export-filename="adroc_icon_dark.png"
   inkscape:export-xdpi="96"
   inkscape:export-ydpi="96"
   xmlns:inkscape="http://www.inkscape.org/namespaces/inkscape"
   xmlns:sodipodi="http://sodipodi.sourceforge.net/DTD/sodipodi-0.dtd"
   xmlns="http://www.w3.org/2000/svg"
   xmlns:svg="http://www.w3.org/2000/svg"><sodipodi:namedview
     id="namedview1"
     pagecolor="#24292d"
     bordercolor="#999999"
     borderopacity="1"
     inkscape:showpageshadow="0"
     inkscape:pageopacity="0"
     inkscape:pagecheckerboard="0"
     inkscape:deskcolor="#d1d1d1"
     inkscape:document-units="px"
     showguides="true"
     showgrid="true"
     inkscape:zoom="0.32482718"
     inkscape:cx="35.403441"
     inkscape:cy="255.52049"
     inkscape:window-width="1920"
     inkscape:window-height="1027"
     inkscape:window-x="1920"
     inkscape:window-y="25"
     inkscape:window-maximized="1"
     inkscape:current-layer="g61" /><defs
     id="defs1"><rect
       x="174"
       y="206"
       width="200"
       height="168"
       id="rect47" /><rect
       x="136"
       y="356.5"
       width="39"
       height="35"
       id="rect27" /><rect
       x="136"
       y="266.5"
       width="72.860168"
       height="22.313906"
       id="rect5" /><rect
       x="136"
       y="356.5"
       width="39"
       height="35"
       id="rect28" /></defs><g
     inkscape:label="Layer 1"
     inkscape:groupmode="layer"
     id="layer1"><g
       id="g2"
       transform="matrix(1.6041622,0,0,1.6041622,-44.317252,-27.401191)"
       style="stroke-width:0.623378"><g
         id="g1"
         transform="matrix(2.0404355,0,0,2.0404355,-99.10148,-83.745857)"
         style="stroke-width:0.305513"><g
           id="g61"
           transform="translate(45.57784,-16.498319)"
           style="stroke-width:0.305513"><path
             id="path59"
             style="fill:#ffffff;fill-opacity:1;fill-rule:evenodd;stroke-width:1.22059;stroke-linecap:round;stroke-linejoin:round;paint-order:markers stroke fill"
             d="m 27.922843,68.989071 -3.554305,2.338358 0.09353,17.399455 -7.67085,11.973426 17.212386,15.34119 13.095842,6.82904 5.425508,0.18706 12.90929,-6.73498 L 82.553101,100.70031 75.06932,88.820418 V 71.420964 l -3.648356,-2.338359 -13.376445,8.04447 -16.838249,-0.09353 z m 32.179432,19.223116 17.305403,11.225671 -14.873511,14.312302 -6.54792,-6.1743 -4.209562,-11.973427 z m -20.486088,0.187068 8.325073,7.390247 -4.209046,11.973428 -6.548437,6.1743 -14.873511,-14.312303 z m 6.832141,19.465995 h 6.625435 l 1.72961,2.99517 -5.053955,5.05343 -5.208467,-4.74544 z" /><path
             d="m 41.253296,95.204525 -5.916952,3.297473 -0.04651,1.309997 5.916434,4.045745 v -2.05827 l -3.391007,-2.572452 3.414262,-2.104781 z"
             style="fill:#5bd779;fill-opacity:1;fill-rule:evenodd;stroke-width:1.22059;stroke-linecap:round;stroke-linejoin:round;paint-order:markers stroke fill"
             id="path60"
             sodipodi:nodetypes="cccccccc" /><path
             d="m 59.049626,95.204525 0.02377,1.917712 3.414262,2.104781 -3.391008,2.572452 v 2.05827 l 5.916435,-4.045745 -0.04651,-1.309997 z"
             style="fill:#5bd779;fill-opacity:1;fill-rule:evenodd;stroke-width:1.22059;stroke-linecap:round;stroke-linejoin:round;paint-order:markers stroke fill"
             id="path61"
             sodipodi:nodetypes="cccccccc" /></g></g></g><text
       xml:space="preserve"
       style="font-style:normal;font-variant:normal;font-weight:800;font-stretch:normal;font-size:36.0818px;font-family:'JetBrains Mono NL';-inkscape-font-specification:'JetBrains Mono NL, Ultra-Bold';font-variant-ligatures:normal;font-variant-caps:normal;font-variant-numeric:normal;font-variant-east-asian:normal;text-align:start;writing-mode:lr-tb;direction:ltr;text-anchor:start;fill:#5bd779;fill-opacity:1;fill-rule:evenodd;stroke-width:3.99521;stroke-linecap:round;stroke-linejoin:round;paint-order:markers stroke fill"
       x="-88.680023"
       y="10.102788"
       id="text66"><tspan
         sodipodi:role="line"
         id="tspan66"
         style="stroke-width:3.99521"
         x="-88.680023"
         y="10.102788" /></text></g></svg>
